<?xml version="1.0" encoding="iso-8859-1"?>
<!-- Generator: Adobe Illustrator 19.0.0, SVG Export Plug-In . SVG Version: 6.00 Build 0)  -->
<svg version="1.1" id="Layer_1" xmlns="http://www.w3.org/2000/svg" xmlns:xlink="http://www.w3.org/1999/xlink" x="0px" y="0px"
	 viewBox="0 0 512 512" style="enable-background:new 0 0 512 512;" xml:space="preserve">
<g>
	<g>
		<path d="M378.593,460.124c-0.222-1.212-0.172-3.473-0.172-5.355v-37.067H133.59v37.067c0,1.882,0.051,4.143-0.172,5.355H378.593z"
			/>
	</g>
</g>
<g>
	<g>
		<path d="M367.189,331.798c-68.641-15.896-153.494-14.986-221.37,2.379l-8.739,2.23c-1.007,0.257-2.119,0.379-3.114,0.379
			c-0.093,0-0.377-0.01-0.377-0.012v56.687h244.832v-59.084L367.189,331.798z"/>
	</g>
</g>
<g>
	<g>
		<path d="M325.304,35.911H186.707c-54.134,0-97.963,44.618-97.963,98.752v69.143c7.272,3.692,14.536,8.641,20.811,14.79
			c15.399,15.094,24.035,36.125,24.035,57.699v35.93l6.088-1.534c71.407-18.265,160.745-19.227,232.937-2.509l5.807,1.314v-33.2
			c0-21.576,8.636-42.606,24.035-57.699c6.275-6.151,13.539-11.101,20.811-14.794v-69.139
			C423.267,80.528,379.438,35.911,325.304,35.911z M211.16,184.992c0,10.041-8.14,18.181-18.181,18.181s-18.181-8.14-18.181-18.181
			v-18.181c0-10.041,8.14-18.181,18.181-18.181s18.181,8.14,18.181,18.181V184.992z M336,184.992
			c0,10.041-8.14,18.181-18.181,18.181s-18.181-8.14-18.181-18.181v-18.181c0-10.041,8.14-18.181,18.181-18.181
			S336,156.77,336,166.811V184.992z"/>
	</g>
</g>
<g>
	<g>
		<path d="M92.48,235.907c-10.288-10.083-23.641-15.598-37.786-15.598c-0.364,0-0.704,0.004-1.068,0.011
			C24.05,220.911,0,245.472,0,275.068c0,30.194,24.589,54.759,54.783,54.759c6.694,0,12.145,5.427,12.145,12.12v112.824
			c0,11.754,9.455,21.318,21.211,21.318s21.211-9.565,21.211-21.32V276.296C109.349,260.969,103.416,246.626,92.48,235.907z"/>
	</g>
</g>
<g>
	<g>
		<path d="M458.362,220.32c-0.362-0.007-0.727-0.011-1.09-0.011c-14.147,0-27.454,5.514-37.742,15.598
			c-10.936,10.72-16.869,25.064-16.869,40.389v178.474c0,11.754,9.455,21.318,21.211,21.318s21.211-9.564,21.211-21.318V341.946
			c0-6.693,5.446-12.12,12.14-12.12c30.193,0,54.777-24.563,54.777-54.757C512,245.472,487.939,220.911,458.362,220.32z"/>
	</g>
</g>
<g>
</g>
<g>
</g>
<g>
</g>
<g>
</g>
<g>
</g>
<g>
</g>
<g>
</g>
<g>
</g>
<g>
</g>
<g>
</g>
<g>
</g>
<g>
</g>
<g>
</g>
<g>
</g>
<g>
</g>
</svg>
