<?xml version="1.0" encoding="iso-8859-1"?>
<!-- Generator: Adobe Illustrator 19.0.0, SVG Export Plug-In . SVG Version: 6.00 Build 0)  -->
<svg version="1.1" id="Layer_1" xmlns="http://www.w3.org/2000/svg" xmlns:xlink="http://www.w3.org/1999/xlink" x="0px" y="0px"
	 viewBox="0 0 512 512" style="enable-background:new 0 0 512 512;" xml:space="preserve">
<g>
	<g>
		<rect x="128" y="452" width="176" height="60"/>
	</g>
</g>
<g>
	<g>
		<path d="M492,172H20c-2.208,0-4,1.792-4,4v68c0,2.208,1.792,4,4,4h472c2.208,0,4-1.792,4-4v-68C496,173.792,494.208,172,492,172z"
			/>
	</g>
</g>
<g>
	<g>
		<path d="M416,0v156h89.752c2.208,0,2.208,0,2.248-7.516V0H416z M452,124.492c0,4.416-3.584,8-8,8c-4.416,0-8-3.584-8-8v-32
			c0-4.416,3.584-8,8-8c4.416,0,8,3.584,8,8V124.492z"/>
	</g>
</g>
<g>
	<g>
		<path d="M128,336v100h176V336H128z M276,416c0,2.212-1.792,4-4,4H160c-2.208,0-4-1.788-4-4v-60c0-2.212,1.792-4,4-4h112
			c2.208,0,4,1.788,4,4V416z"/>
	</g>
</g>
<g>
	<g>
		<path d="M4,360v144.492C4,512,4.54,512,6.752,512H112V360H4z M96,412.324c0,4.416-3.584,8-8,8s-8-3.584-8-8v-32
			c0-4.416,3.584-8,8-8s8,3.584,8,8V412.324z"/>
	</g>
</g>
<g>
	<g>
		<path d="M8.084,264C5.876,264,0,264,0,264v16.492c0,2.212,0,4,4,4V344h108v-56h16v32h176v-32h16v224h80V288h16v224h89.624
			c2.208,0,2.208,0,2.376-7.508v-220c4,0,4-1.788,4-4V264H8.084z M79.584,312h-32c-4.416,0-8-3.584-8-8c0-4.416,3.584-8,8-8h32
			c4.416,0,8,3.584,8,8C87.584,308.416,84,312,79.584,312z M178.084,308.492c-5.512,0-10-4.484-10-10s4.488-10,10-10
			c5.512,0,10,4.484,10,10S183.596,308.492,178.084,308.492z M262.084,308.492c-5.512,0-10-4.484-10-10s4.488-10,10-10
			c5.512,0,10,4.484,10,10S267.596,308.492,262.084,308.492z M384,340.492c0,4.416-3.584,8-8,8c-4.416,0-8-3.584-8-8v-32
			c0-4.416,3.584-8,8-8c4.416,0,8,3.584,8,8V340.492z M448,340.492c0,4.416-3.584,8-8,8c-4.416,0-8-3.584-8-8v-32
			c0-4.416,3.584-8,8-8c4.416,0,8,3.584,8,8V340.492z"/>
	</g>
</g>
<g>
	<g>
		<path d="M316.084,0C313.876,0,308,0,308,0v8h-44.016c-0.496-4-3.824-8-7.9-8h-72c-4.076,0-7.404,4-7.9,8H124V0H12.084
			C9.876,0,4,0,4,0v148.484c-0.032,5.152-0.484,6.016,1.752,6.016l113.58,1.5h215H400V0H316.084z M108,124.492c0,4.416-3.584,8-8,8
			s-8-3.584-8-8v-32c0-4.416,3.584-8,8-8s8,3.584,8,8V124.492z M188,16h56v76h-56V16z M124,24h48v68.836l-48,41.6V24z M150.148,140
			l36.924-32H253.1l36.92,32H150.148z M308,134.436l-48-41.6V24h48V134.436z M384,124.492c0,4.416-3.584,8-8,8c-4.416,0-8-3.584-8-8
			v-32c0-4.416,3.584-8,8-8c4.416,0,8,3.584,8,8V124.492z"/>
	</g>
</g>
<g>
</g>
<g>
</g>
<g>
</g>
<g>
</g>
<g>
</g>
<g>
</g>
<g>
</g>
<g>
</g>
<g>
</g>
<g>
</g>
<g>
</g>
<g>
</g>
<g>
</g>
<g>
</g>
<g>
</g>
</svg>
