<?xml version="1.0" encoding="iso-8859-1"?>
<!-- Generator: Adobe Illustrator 19.0.0, SVG Export Plug-In . SVG Version: 6.00 Build 0)  -->
<svg version="1.1" id="Layer_1" xmlns="http://www.w3.org/2000/svg" xmlns:xlink="http://www.w3.org/1999/xlink" x="0px" y="0px"
	 viewBox="0 0 512 512" style="enable-background:new 0 0 512 512;" xml:space="preserve">
<g>
	<g>
		<path d="M496,115.512H16c-8.832,0-16,7.168-16,16c0,8.832,7.168,16,16,16h480c8.832,0,16-7.168,16-16
			C512,122.68,504.832,115.512,496,115.512z"/>
	</g>
</g>
<g>
	<g>
		<path d="M256.352,273.128c-38.768,0-70.32,31.088-70.32,69.296c0,12.16-10.224,22.064-22.8,22.064c-8.832,0-16,7.168-16,16
			c0,8.832,7.168,16,16,16c30.224,0,54.8-24.256,54.8-54.064c0-20.576,17.184-37.296,38.32-37.296c8.832,0,16-7.168,16-16
			C272.352,280.296,265.184,273.128,256.352,273.128z"/>
	</g>
</g>
<g>
	<g>
		<path d="M349.472,364.488c-12.576,0-22.8-9.904-22.8-22.064c0-38.208-31.552-69.296-70.32-69.296c-8.832,0-16,7.168-16,16
			c0,8.832,7.168,16,16,16c21.136,0,38.32,16.736,38.32,37.296c0,29.808,24.576,54.064,54.8,54.064c8.832,0,16-7.168,16-16
			C365.472,371.656,358.304,364.488,349.472,364.488z"/>
	</g>
</g>
<g>
	<g>
		<path d="M464,115.512c-8.832,0-16,7.168-16,16v32H64v-32c0-8.832-7.168-16-16-16c-8.832,0-16,7.168-16,16v48
			c0,8.832,7.168,16,16,16h416c8.832,0,16-7.168,16-16v-48C480,122.68,472.832,115.512,464,115.512z"/>
	</g>
</g>
<g>
	<g>
		<path d="M256,179.512c-8.832,0-16,7.168-16,16v176c0,8.832,7.168,16,16,16c8.832,0,16-7.168,16-16v-176
			C272,186.68,264.832,179.512,256,179.512z"/>
	</g>
</g>
<g>
</g>
<g>
</g>
<g>
</g>
<g>
</g>
<g>
</g>
<g>
</g>
<g>
</g>
<g>
</g>
<g>
</g>
<g>
</g>
<g>
</g>
<g>
</g>
<g>
</g>
<g>
</g>
<g>
</g>
</svg>
